<svg height="21" viewBox="0 0 17 21" width="17" xmlns="http://www.w3.org/2000/svg" xmlns:xlink="http://www.w3.org/1999/xlink"><filter id="a" height="590%" width="141.5%" x="-20.8%" y="-245%"><feOffset dx="0" dy="2" in="SourceAlpha" result="shadowOffsetOuter1"/><feGaussianBlur in="shadowOffsetOuter1" result="shadowBlurOuter1" stdDeviation="50"/><feColorMatrix in="shadowBlurOuter1" result="shadowMatrixOuter1" type="matrix" values="0 0 0 0 0.0874797751   0 0 0 0 0.0705046583   0 0 0 0 0.338711504  0 0 0 1 0"/><feMerge><feMergeNode in="shadowMatrixOuter1"/><feMergeNode in="SourceGraphic"/></feMerge></filter><g fill="#191463" filter="url(#a)" transform="translate(-450 54)"><path d="m519.5 25c-4.155556 0-8.5 3.1043478-8.5 8.2173913 0 4.8391304 7.555556 12.2347826 7.838889 12.5086957.188889.1826087.377778.273913.661111.273913s.472222-.0913043.661111-.273913c.283333-.2739131 7.838889-7.6695653 7.838889-12.5086957 0-5.1130435-4.344444-8.2173913-8.5-8.2173913zm-.1 11.5625c-1.926667 0-3.4-1.421875-3.4-3.28125s1.473333-3.28125 3.4-3.28125 3.4 1.421875 3.4 3.28125-1.473333 3.28125-3.4 3.28125z" transform="translate(27 5)"/></g></svg>