<?xml version="1.0" encoding="utf-8"?>
<!-- Generator: Adobe Illustrator 19.0.0, SVG Export Plug-In . SVG Version: 6.00 Build 0)  -->
<svg version="1.1"
	 id="svg2" xmlns:sodipodi="http://sodipodi.sourceforge.net/DTD/sodipodi-0.dtd" xmlns:cc="http://creativecommons.org/ns#" xmlns:svg="http://www.w3.org/2000/svg" xmlns:dc="http://purl.org/dc/elements/1.1/" xmlns:rdf="http://www.w3.org/1999/02/22-rdf-syntax-ns#" xmlns:inkscape="http://www.inkscape.org/namespaces/inkscape" inkscape:output_extension="org.inkscape.output.svg.inkscape" inkscape:version="0.46" sodipodi:docname="Ayala Logo edit.svg" sodipodi:version="0.32"
	 xmlns="http://www.w3.org/2000/svg" xmlns:xlink="http://www.w3.org/1999/xlink" x="0px" y="0px" viewBox="-205 359 200 75"
	 style="enable-background:new -205 359 200 75;" xml:space="preserve">
<style type="text/css">
	.st0{fill:#0066CC;}
	.st1{fill:#F0781E;}
</style>
<defs>
	
	
		<inkscape:perspective  id="perspective10" inkscape:vp_z="744.09448 : 526.18109 : 1" inkscape:vp_x="0 : 526.18109 : 1" sodipodi:type="inkscape:persp3d" inkscape:vp_y="0 : 1000 : 0" inkscape:persp3d-origin="372.04724 : 350.78739 : 1">
		</inkscape:perspective>
	
		<inkscape:perspective  id="perspective2447" inkscape:vp_z="744.09448 : 526.18109 : 1" inkscape:vp_x="0 : 526.18109 : 1" sodipodi:type="inkscape:persp3d" inkscape:vp_y="0 : 1000 : 0" inkscape:persp3d-origin="372.04724 : 350.78739 : 1">
		</inkscape:perspective>
</defs>
<sodipodi:namedview  guidetolerance="10" showgrid="false" showguides="true" inkscape:cy="39.344071" pagecolor="#ffffff" bordercolor="#666666" inkscape:cx="89.811305" inkscape:zoom="1" objecttolerance="10" id="base" borderopacity="1.0" gridtolerance="10000" inkscape:guide-bbox="true" inkscape:window-y="-8" inkscape:window-x="-8" inkscape:window-height="850" inkscape:window-width="1600" inkscape:current-layer="layer1" inkscape:document-units="px" inkscape:pageshadow="2" inkscape:pageopacity="0.0">
	</sodipodi:namedview>
<g id="layer1" inkscape:label="Layer 1" inkscape:groupmode="layer">
	<path id="path2398" class="st0" d="M-202.3,360.2l15.8,29.9l-15.8,29.9h8.2l11.8-22.5l1.9,3.6l-9.8,18.9h9l5.3-10l5.3,10l5.3-10
		l5.3,10h9.3l-21.6-41.3h-0.1l0,0l1.9-3.7l1.9,3.7h0v0l21.6,41.3h7.9l-15.8-29.9l15.8-29.9h-8.4l-11.6,22.2l-1.9-3.7l9.7-18.5h-8.8
		l-5.3,10l-5.3-10l-5.3,10l-5.3-10h-9.1l21.3,40.8h0.1l0,0l-1.9,3.7l-1.9-3.7h0v0l-21.4-40.8H-202.3z"/>
	<path id="text3205" class="st1" d="M-41.6,380.3v39.8h7.2v-39.8H-41.6z M-122.3,382.5l2.2,3.8l-11.4,33.9h8l2.5-8.6h12.6l2.6,8.6h8
		l-12.4-37.7h-3.4h-5.3H-122.3z M-114.8,389h0.2c0.1,1.4,0.3,2.5,0.5,3.3l3.9,13.1h-9.2l3.9-13.2
		C-115.1,391.1-114.9,390.1-114.8,389z M-58.1,392.6c-1.3,0-2.9,0.2-4.8,0.6c-1.9,0.4-3.4,1-4.5,1.7v6.1c2.6-1.9,5.4-2.9,8.3-2.9
		c3,0,4.5,1.6,4.5,4.7l-6.8,1c-5.6,0.8-8.5,3.8-8.5,9c0,2.5,0.7,4.5,2.1,5.9c1.4,1.5,3.3,2.2,5.6,2.2c3.2,0,5.7-1.5,7.4-4.6h0.1v3.9
		h6.8v-16.3C-47.7,396.3-51.2,392.6-58.1,392.6z M-18.1,392.6c-1.3,0-2.9,0.2-4.8,0.6c-1.9,0.4-3.4,1-4.5,1.7v6.1
		c2.6-1.9,5.4-2.9,8.3-2.9c3,0,4.5,1.6,4.5,4.7l-6.8,1c-5.6,0.8-8.4,3.8-8.4,9c0,2.5,0.7,4.5,2.1,5.9c1.4,1.5,3.3,2.2,5.6,2.2
		c3.2,0,5.7-1.5,7.4-4.6h0.1v3.9h6.8v-16.3C-7.8,396.3-11.2,392.6-18.1,392.6z M-97.5,393.2l10,26.9l-1.3,3.5
		c-0.8,2.1-2.2,3.1-4.2,3.1c-1.2,0-2.2-0.3-3.2-0.9v6.3c1,0.4,2.5,0.6,4.3,0.6c4.7,0,8.3-3.4,10.6-10.2l10.2-29.3h-7.1l-4.9,16.9
		c-0.4,1.4-0.6,2.5-0.7,3.4H-84c-0.1-1.3-0.4-2.4-0.7-3.4l-4.8-16.9H-97.5z M-54.5,407.3v1.9c0,1.7-0.5,3.1-1.4,4.2
		c-1,1.1-2.2,1.7-3.6,1.7c-1.1,0-1.9-0.3-2.6-0.9c-0.6-0.6-0.9-1.4-0.9-2.4c0-2.2,1.3-3.5,3.9-3.8L-54.5,407.3z M-14.6,407.3v1.9
		c0,1.7-0.5,3.1-1.4,4.2c-1,1.1-2.2,1.7-3.7,1.7c-1.1,0-1.9-0.3-2.5-0.9c-0.6-0.6-1-1.4-1-2.4c0-2.2,1.3-3.5,3.9-3.8L-14.6,407.3z"
		/>
</g>
</svg>
