<?xml version="1.0" standalone="no"?>
<!DOCTYPE svg PUBLIC "-//W3C//DTD SVG 20010904//EN"
 "http://www.w3.org/TR/2001/REC-SVG-20010904/DTD/svg10.dtd">
<svg version="1.0" xmlns="http://www.w3.org/2000/svg"
 width="420.000000pt" height="398.000000pt" viewBox="0 0 420.000000 398.000000"
 preserveAspectRatio="xMidYMid meet">
<metadata>
Created by potrace 1.16, written by Peter Selinger 2001-2019
</metadata>
<style type="text/css">
	.st0{fill:#0066CC;}
</style>
<g transform="translate(0.000000,398.000000) scale(0.100000,-0.100000)"
fill="#000000" stroke="none">
<path class="st0" d="M30 3945 c0 -3 232 -444 515 -980 l515 -974 -510 -966 c-281 -531
-513 -972 -516 -980 -5 -13 30 -15 267 -15 l274 0 345 658 c190 361 362 690
384 731 l38 73 59 -110 59 -111 -320 -616 c-176 -339 -320 -619 -320 -621 0
-2 135 -3 301 -2 l301 3 164 310 c90 170 167 312 172 316 4 4 83 -136 176
-312 93 -175 172 -319 175 -319 3 0 82 144 175 320 92 176 169 320 171 320 2
0 79 -144 172 -320 l168 -319 313 -1 313 0 -75 142 c-41 79 -361 689 -710
1357 l-635 1213 55 109 c30 60 56 109 59 109 3 0 34 -57 69 -127 104 -207
1455 -2786 1464 -2795 5 -5 126 -7 269 -6 l261 3 -514 970 c-282 534 -513 976
-514 984 0 11 862 1653 997 1899 l34 62 -283 0 -283 0 -374 -715 c-205 -393
-376 -715 -380 -715 -3 0 -31 49 -61 109 l-55 109 316 603 317 604 -291 3
c-160 1 -294 -1 -298 -5 -4 -5 -80 -145 -169 -313 -89 -168 -164 -308 -168
-312 -4 -3 -83 137 -175 313 -93 175 -172 319 -175 319 -4 0 -80 -139 -170
-308 -89 -169 -166 -313 -171 -320 -5 -9 -62 89 -177 307 l-169 321 -304 0
c-275 0 -303 -2 -297 -16 3 -9 317 -611 697 -1338 l690 -1321 -53 -107 c-29
-60 -55 -108 -59 -108 -3 0 -65 114 -137 253 -72 138 -412 788 -756 1442
l-624 1190 -271 3 c-149 1 -271 0 -271 -3z"/>
</g>
</svg>
