<?xml version="1.0" encoding="UTF-8" ?>
<!DOCTYPE svg PUBLIC "-//W3C//DTD SVG 1.1//EN" "http://www.w3.org/Graphics/SVG/1.1/DTD/svg11.dtd">
<svg width="461pt" height="122pt" viewBox="0 0 2228 588" version="1.1" xmlns="http://www.w3.org/2000/svg">
<g id="#ffffffff">
</g>
<g id="#03a1cbff">
<path fill="#03a1cb" opacity="1.00" d=" M 183.25 56.43 C 184.28 53.74 187.45 53.29 189.97 53.10 C 198.24 53.11 206.12 56.38 212.95 60.84 C 205.11 64.42 196.04 67.11 187.52 64.47 C 184.28 63.53 181.10 59.77 183.25 56.43 Z" />
<path fill="#03a1cb" opacity="1.00" d=" M 223.34 60.80 C 225.32 59.45 227.41 57.95 229.95 58.11 C 240.98 57.84 251.58 61.51 262.00 64.71 C 292.07 74.94 320.61 89.43 347.24 106.69 C 366.39 119.43 384.20 134.27 399.81 151.18 C 414.95 167.88 427.03 187.16 436.49 207.58 C 440.25 214.86 442.78 222.91 448.15 229.23 C 450.41 221.94 449.72 213.63 454.23 207.13 C 456.21 203.97 460.47 203.85 463.75 204.55 C 468.48 205.90 471.67 210.31 473.16 214.81 C 476.25 223.87 476.10 233.60 476.02 243.06 C 475.06 259.83 472.35 276.46 468.86 292.87 C 467.54 299.39 465.34 305.94 466.42 312.66 C 472.89 309.04 476.15 302.12 480.48 296.44 C 482.55 293.90 485.92 291.43 489.35 292.74 C 493.48 294.79 493.88 299.90 494.20 303.95 C 494.38 311.57 492.50 319.06 490.37 326.32 C 477.90 365.88 456.31 402.12 429.86 433.90 C 417.06 448.99 403.70 463.83 388.04 476.04 C 382.86 480.49 376.85 484.06 372.38 489.29 C 370.76 490.91 371.50 493.39 371.33 495.44 C 374.62 495.86 378.00 495.98 381.24 495.11 C 392.15 492.31 402.22 486.83 411.16 480.07 C 414.46 477.75 417.75 474.81 421.95 474.49 C 424.78 474.18 428.22 476.00 428.41 479.11 C 429.01 483.73 426.07 487.84 423.22 491.17 C 415.24 499.85 404.57 505.46 393.79 509.90 C 374.06 518.09 353.01 522.49 332.01 525.99 C 307.85 529.69 283.44 531.95 258.99 531.93 C 236.67 531.48 213.79 529.74 192.93 521.19 C 158.28 507.26 133.76 470.51 135.54 433.02 C 136.56 411.16 147.53 390.23 164.50 376.51 C 178.09 364.79 196.43 360.48 213.97 359.83 C 234.80 359.29 257.03 364.84 272.18 379.88 C 284.53 391.35 290.46 408.42 290.87 425.01 C 291.56 436.13 287.82 447.30 281.22 456.21 C 270.43 470.30 253.68 479.60 236.06 481.56 C 227.62 482.45 218.76 481.92 210.97 478.29 C 195.66 471.72 186.70 452.43 192.68 436.66 C 196.04 427.17 204.81 419.36 215.04 418.53 C 220.48 418.32 226.01 420.24 229.98 424.02 C 234.38 428.07 239.67 432.33 246.04 431.82 C 250.43 432.08 254.18 428.20 254.43 423.96 C 254.73 419.53 252.66 415.35 250.05 411.91 C 245.86 406.17 239.57 402.17 232.80 400.15 C 221.25 396.63 208.62 397.81 197.45 402.15 C 197.53 400.14 197.57 398.14 197.57 396.14 C 193.96 396.79 190.35 397.97 187.75 400.69 C 178.74 409.27 171.54 420.27 169.07 432.60 C 167.35 432.25 165.63 431.93 163.91 431.63 C 157.31 449.49 165.35 469.76 179.08 481.94 C 188.60 490.10 199.47 497.16 211.77 500.21 C 244.35 509.79 281.94 496.02 301.26 468.25 C 311.31 454.35 315.80 436.97 315.50 419.94 C 315.18 403.40 311.35 386.24 301.06 372.93 C 292.98 361.78 282.04 352.94 270.03 346.32 C 271.33 344.76 274.14 343.56 273.30 341.12 C 272.12 337.13 268.00 335.12 264.50 333.51 C 234.64 322.84 199.85 323.75 172.03 339.78 C 170.53 338.32 169.38 335.79 166.96 335.99 C 161.54 335.54 157.00 338.99 152.77 341.86 C 128.94 359.02 110.74 385.80 108.52 415.58 C 106.85 414.72 105.18 412.55 103.16 413.76 C 99.58 415.72 98.90 420.31 98.47 423.99 C 97.27 445.91 105.73 467.24 117.91 485.09 C 122.49 490.94 125.91 497.56 130.01 503.73 C 119.07 493.64 108.89 482.56 101.29 469.70 C 96.78 462.76 93.98 454.93 90.08 447.66 C 85.54 438.84 82.83 429.23 80.17 419.72 C 72.35 388.92 72.80 354.86 87.27 326.03 C 90.76 318.56 95.38 310.47 103.53 307.44 C 107.95 305.96 112.10 308.49 114.88 311.77 C 123.38 300.04 134.72 290.80 146.41 282.42 C 173.24 263.83 206.30 255.15 238.78 256.21 C 245.25 256.72 252.43 257.19 257.58 261.61 C 260.57 264.98 256.64 268.72 254.71 271.46 C 275.24 277.45 294.21 288.56 309.59 303.41 C 330.47 323.33 344.68 350.18 349.22 378.69 C 355.74 417.13 344.29 458.23 318.68 487.65 C 312.06 495.85 303.90 502.58 295.68 509.10 C 303.50 507.42 310.90 504.25 318.28 501.25 C 353.04 486.45 381.70 459.48 401.90 427.86 C 410.43 413.65 417.80 398.65 422.58 382.75 C 438.78 330.40 434.26 271.94 410.24 222.69 C 392.05 185.17 361.67 153.36 324.12 134.94 C 291.68 118.82 255.09 112.02 219.02 112.79 C 206.00 113.49 192.65 113.77 180.25 118.27 C 175.64 120.04 170.63 120.91 165.71 120.21 C 162.59 120.10 161.42 115.73 163.34 113.56 C 167.03 108.57 173.47 106.78 179.26 105.51 C 186.27 103.80 193.67 105.67 200.57 103.27 C 200.34 101.33 201.40 98.79 199.55 97.42 C 196.22 94.33 191.24 94.43 187.01 95.03 C 173.47 97.01 160.81 103.60 150.62 112.62 C 145.72 116.86 142.28 123.07 135.93 125.38 C 132.89 125.95 129.06 125.68 127.23 122.83 C 124.78 119.64 125.03 115.28 125.82 111.56 C 128.07 104.07 134.60 99.15 140.34 94.36 C 154.27 83.02 172.05 76.68 190.00 76.67 C 206.73 76.62 223.05 81.11 238.84 86.23 C 243.62 87.86 248.72 88.50 253.72 87.64 C 254.52 79.55 247.05 74.31 240.55 71.38 C 234.70 68.08 227.31 66.71 223.34 60.80 Z" />
<path fill="#03a1cb" opacity="1.00" d=" M 138.81 144.78 C 143.54 137.81 151.11 133.36 158.82 130.38 C 157.39 138.82 153.97 147.56 146.93 152.86 C 144.90 154.47 141.83 155.25 139.59 153.61 C 136.12 152.05 137.14 147.37 138.81 144.78 Z" />
<path fill="#03a1cb" opacity="1.00" d=" M 492.41 259.24 C 493.52 256.43 496.48 253.52 499.72 254.77 C 502.91 255.49 503.80 259.12 503.63 261.96 C 503.14 270.33 498.99 277.98 493.87 284.44 C 490.90 276.49 489.17 267.38 492.41 259.24 Z" />
<path fill="#03a1cb" opacity="1.00" d=" M 611.43 366.67 C 625.01 364.25 640.01 367.24 650.51 376.54 C 653.75 379.56 657.64 383.17 657.33 388.01 C 657.10 393.51 651.80 397.07 646.96 398.31 C 642.75 399.21 639.71 395.55 636.94 393.04 C 630.20 386.72 619.70 384.34 611.10 388.01 C 603.21 390.82 597.06 397.97 595.52 406.20 C 594.74 411.63 594.96 417.40 597.64 422.32 C 603.17 434.28 619.16 439.81 630.81 433.51 C 635.73 431.39 638.83 426.69 643.50 424.24 C 651.92 422.25 661.34 433.03 655.55 440.65 C 642.50 457.27 616.95 461.22 598.72 451.23 C 586.45 444.81 577.52 432.44 575.31 418.76 C 573.45 408.51 575.54 397.70 580.74 388.70 C 587.01 377.28 598.74 369.22 611.43 366.67 Z" />
<path fill="#03a1cb" opacity="1.00" d=" M 700.26 368.27 C 705.10 364.01 713.97 365.32 716.44 371.62 C 726.67 393.82 736.20 416.35 746.39 438.57 C 748.55 442.61 749.12 448.15 745.62 451.64 C 741.84 456.50 733.52 456.05 730.08 451.02 C 727.76 447.43 726.55 443.27 724.96 439.33 C 712.81 439.17 700.66 439.24 688.51 439.29 C 686.38 444.54 685.00 450.90 679.90 454.16 C 675.60 455.75 669.90 455.01 667.22 450.91 C 664.52 447.76 665.19 443.21 666.83 439.73 C 676.60 418.17 686.39 396.63 696.12 375.05 C 697.23 372.65 698.32 370.13 700.26 368.27 M 696.17 421.63 C 703.39 421.70 710.60 421.74 717.82 421.63 C 714.06 413.11 710.76 404.40 707.02 395.88 C 703.46 404.48 700.01 413.14 696.17 421.63 Z" />
<path fill="#03a1cb" opacity="1.00" d=" M 1748.41 366.83 C 1766.66 362.73 1786.89 371.52 1796.45 387.56 C 1807.14 404.22 1804.79 427.84 1791.02 442.05 C 1778.29 456.43 1755.78 460.81 1738.58 452.31 C 1725.05 446.09 1715.13 432.74 1713.01 418.01 C 1710.06 400.37 1718.93 381.42 1734.40 372.43 C 1738.68 369.73 1743.44 367.82 1748.41 366.83 M 1752.46 386.70 C 1742.46 389.05 1734.23 397.80 1733.07 408.08 C 1731.75 416.38 1735.34 425.00 1741.72 430.35 C 1751.54 438.99 1768.24 437.68 1776.59 427.61 C 1784.78 418.85 1784.66 404.07 1776.92 395.07 C 1771.12 388.00 1761.32 384.99 1752.46 386.70 Z" />
<path fill="#03a1cb" opacity="1.00" d=" M 990.77 371.62 C 993.87 367.00 1001.13 366.04 1005.35 369.65 C 1007.95 371.75 1009.69 374.67 1011.72 377.28 C 1022.31 391.23 1033.70 404.59 1043.73 418.95 C 1044.18 404.93 1043.70 390.90 1044.06 376.88 C 1044.08 371.29 1049.56 366.89 1055.01 367.49 C 1060.33 367.57 1064.68 372.69 1064.33 377.93 C 1064.36 400.31 1064.44 422.70 1064.29 445.09 C 1064.52 451.51 1057.30 456.88 1051.24 454.60 C 1047.13 453.49 1045.06 449.45 1042.51 446.43 C 1035.28 436.75 1027.51 427.49 1020.26 417.83 C 1016.78 413.20 1013.26 408.61 1009.53 404.20 C 1009.03 417.80 1009.59 431.43 1009.25 445.04 C 1009.25 448.97 1006.72 452.50 1003.27 454.22 C 999.08 455.66 993.61 454.97 990.99 451.03 C 988.49 447.92 988.84 443.74 988.80 440.01 C 988.83 419.99 988.82 399.96 988.82 379.94 C 988.84 377.08 989.13 374.06 990.77 371.62 Z" />
<path fill="#03a1cb" opacity="1.00" d=" M 1186.73 374.06 C 1188.45 370.17 1192.42 366.83 1196.91 367.49 C 1201.44 367.22 1204.78 370.99 1206.18 374.93 C 1212.81 391.36 1219.39 407.82 1226.05 424.24 C 1232.90 407.35 1239.58 390.38 1246.43 373.49 C 1249.10 365.65 1261.63 365.46 1264.82 372.95 C 1267.48 378.66 1263.79 384.42 1261.48 389.54 C 1253.41 407.80 1245.36 426.06 1237.33 444.34 C 1235.80 447.62 1234.46 451.22 1231.55 453.56 C 1228.63 455.33 1224.84 455.52 1221.70 454.22 C 1218.88 452.77 1217.22 449.90 1215.96 447.12 C 1206.75 425.76 1197.19 404.55 1187.78 383.28 C 1186.45 380.41 1185.89 377.15 1186.73 374.06 Z" />
<path fill="#03a1cb" opacity="1.00" d=" M 764.11 369.17 C 767.29 366.94 771.35 367.47 775.01 367.40 C 782.64 367.56 790.31 367.06 797.93 367.81 C 814.49 370.40 827.07 387.81 823.56 404.39 C 821.90 414.30 813.37 421.12 804.48 424.58 C 810.09 428.92 815.68 433.34 821.08 437.94 C 826.75 442.01 824.94 452.01 818.54 454.32 C 814.88 455.52 810.50 455.14 807.58 452.46 C 798.64 444.63 789.57 436.95 780.49 429.29 C 780.02 434.53 780.37 439.80 780.12 445.05 C 780.17 449.75 776.42 454.16 771.79 454.90 C 765.94 456.28 759.60 451.07 759.78 445.07 C 759.72 423.02 759.84 400.98 759.72 378.93 C 759.53 375.24 760.89 371.24 764.11 369.17 M 780.22 386.28 C 780.25 394.68 780.17 403.08 780.28 411.47 C 786.76 410.77 794.21 413.04 799.82 408.77 C 805.72 404.49 806.53 394.92 801.11 389.92 C 795.70 384.20 787.16 386.84 780.22 386.28 Z" />
<path fill="#03a1cb" opacity="1.00" d=" M 845.08 368.85 C 847.71 367.15 850.99 367.47 853.98 367.40 C 866.01 367.50 878.04 367.26 890.06 367.51 C 896.38 367.21 901.60 374.71 898.62 380.45 C 897.34 384.03 893.78 386.13 890.08 386.16 C 880.24 386.44 870.39 386.07 860.55 386.35 C 860.62 391.36 860.65 396.36 860.54 401.37 C 868.05 401.46 875.57 401.28 883.08 401.41 C 887.67 401.22 892.08 405.34 891.79 410.00 C 892.05 414.32 888.50 418.61 884.05 418.61 C 876.22 418.98 868.36 418.70 860.52 418.68 C 860.67 424.58 860.55 430.49 860.59 436.40 C 870.40 436.28 880.22 436.26 890.03 436.36 C 896.85 435.93 901.98 444.62 898.15 450.34 C 896.29 454.08 891.94 455.29 888.06 455.22 C 876.01 455.23 863.97 455.23 851.92 455.22 C 848.26 455.25 844.23 454.10 842.18 450.85 C 839.83 447.73 840.34 443.68 840.21 440.03 C 840.17 419.34 840.20 398.65 840.20 377.96 C 840.02 374.30 842.21 370.94 845.08 368.85 Z" />
<path fill="#03a1cb" opacity="1.00" d=" M 956.39 368.26 C 960.57 366.60 965.96 367.44 968.80 371.14 C 971.44 374.49 971.02 378.99 971.06 382.99 C 970.85 404.28 971.40 425.58 970.73 446.86 C 969.94 454.34 959.71 457.45 954.35 452.70 C 951.37 450.47 950.44 446.59 950.54 443.05 C 950.65 421.35 950.54 399.64 950.59 377.94 C 950.45 373.89 952.77 370.04 956.39 368.26 Z" />
<path fill="#03a1cb" opacity="1.00" d=" M 1121.94 369.99 C 1124.51 367.23 1128.53 367.42 1132.00 367.38 C 1144.02 367.48 1156.05 367.33 1168.07 367.45 C 1173.19 367.03 1178.04 371.81 1177.62 376.94 C 1177.77 381.95 1173.06 386.46 1168.09 386.27 C 1158.41 386.22 1148.73 386.28 1139.05 386.24 C 1138.99 391.31 1138.93 396.39 1139.15 401.46 C 1146.45 401.37 1153.76 401.33 1161.07 401.41 C 1164.75 401.28 1168.76 403.35 1169.69 407.15 C 1171.64 411.89 1168.35 418.16 1163.06 418.55 C 1155.10 418.99 1147.11 418.73 1139.15 418.62 C 1138.96 424.55 1138.96 430.47 1139.13 436.39 C 1148.76 436.25 1158.39 436.32 1168.02 436.32 C 1172.45 436.10 1177.08 439.42 1177.54 443.99 C 1178.87 449.76 1173.81 455.25 1168.08 455.14 C 1155.02 455.26 1141.95 455.35 1128.90 455.07 C 1123.40 455.21 1118.53 450.62 1118.62 445.08 C 1118.50 423.37 1118.66 401.66 1118.56 379.96 C 1118.44 376.41 1118.96 372.35 1121.94 369.99 Z" />
<path fill="#03a1cb" opacity="1.00" d=" M 1277.48 377.91 C 1277.08 372.22 1282.21 367.00 1287.94 367.45 C 1300.98 367.38 1314.02 367.37 1327.06 367.46 C 1332.13 367.15 1336.90 371.93 1336.48 377.02 C 1336.68 382.04 1332.04 386.29 1327.11 386.18 C 1317.29 386.35 1307.46 386.18 1297.64 386.30 C 1297.83 391.32 1297.65 396.36 1298.11 401.37 C 1305.42 401.41 1312.74 401.34 1320.06 401.40 C 1324.15 401.11 1328.00 404.27 1328.90 408.22 C 1330.12 413.08 1326.25 418.63 1321.08 418.62 C 1313.26 418.98 1305.42 418.66 1297.60 418.65 C 1297.91 424.52 1297.80 430.41 1297.64 436.29 C 1307.43 436.31 1317.23 436.29 1327.04 436.34 C 1331.54 436.16 1336.02 439.66 1336.41 444.26 C 1337.41 449.49 1333.28 454.75 1327.96 454.98 C 1317.32 455.54 1306.65 455.06 1296.00 455.23 C 1291.88 455.14 1287.61 455.65 1283.64 454.30 C 1279.55 452.78 1277.16 448.30 1277.47 444.07 C 1277.50 422.01 1277.47 399.96 1277.48 377.91 Z" />
<path fill="#03a1cb" opacity="1.00" d=" M 1354.40 370.40 C 1356.95 367.22 1361.30 367.39 1364.99 367.41 C 1373.00 367.53 1381.03 367.11 1389.03 367.73 C 1405.71 370.00 1418.74 387.32 1415.26 404.03 C 1413.77 414.11 1405.05 420.87 1396.23 424.64 C 1401.10 428.49 1405.93 432.40 1410.85 436.21 C 1413.08 437.99 1415.48 440.08 1415.95 443.08 C 1417.07 447.74 1414.19 452.95 1409.70 454.53 C 1406.23 455.44 1402.18 455.04 1399.45 452.55 C 1390.46 444.72 1381.29 437.09 1372.25 429.32 C 1371.85 435.16 1371.77 441.00 1371.66 446.85 C 1370.74 453.49 1362.64 456.93 1356.91 453.95 C 1353.61 452.32 1351.38 448.76 1351.54 445.07 C 1351.41 423.71 1351.56 402.35 1351.47 380.98 C 1351.46 377.31 1351.27 372.99 1354.40 370.40 M 1371.70 386.31 C 1371.91 394.69 1371.76 403.06 1371.75 411.44 C 1378.74 410.76 1387.19 413.33 1392.75 407.72 C 1398.44 402.70 1397.59 392.84 1391.39 388.63 C 1385.57 384.73 1378.23 386.71 1371.70 386.31 Z" />
<path fill="#03a1cb" opacity="1.00" d=" M 1423.50 373.52 C 1425.79 367.13 1435.22 365.30 1439.76 370.33 C 1442.98 373.83 1445.42 377.96 1448.17 381.84 C 1451.69 387.22 1455.87 392.18 1459.00 397.82 C 1465.34 389.15 1471.19 380.13 1477.51 371.46 C 1481.00 366.00 1489.89 366.21 1493.49 371.42 C 1496.70 375.07 1495.95 380.56 1493.25 384.27 C 1488.28 391.59 1483.06 398.75 1478.18 406.14 C 1475.33 410.52 1471.81 414.53 1469.63 419.32 C 1468.92 428.49 1469.84 437.74 1469.25 446.93 C 1468.12 451.44 1463.81 455.63 1458.88 454.90 C 1454.49 455.19 1450.51 451.79 1449.32 447.71 C 1448.31 437.97 1449.87 428.05 1448.62 418.36 C 1440.98 407.07 1433.22 395.80 1425.27 384.71 C 1422.95 381.54 1421.68 377.23 1423.50 373.52 Z" />
<path fill="#03a1cb" opacity="1.00" d=" M 1551.44 368.45 C 1553.74 367.24 1556.46 367.53 1559.00 367.42 C 1567.65 367.45 1576.32 367.31 1584.98 367.49 C 1593.84 367.49 1602.42 371.21 1609.17 376.83 C 1622.89 388.28 1628.06 408.14 1622.83 425.06 C 1619.63 434.13 1614.09 442.65 1606.01 448.07 C 1600.87 451.38 1595.11 454.02 1588.99 454.65 C 1579.69 455.74 1570.32 455.01 1561.00 455.25 C 1557.07 455.10 1552.33 455.77 1549.43 452.52 C 1546.98 450.42 1545.65 447.30 1545.90 444.08 C 1545.83 422.36 1545.88 400.63 1545.87 378.91 C 1545.75 374.78 1547.43 370.22 1551.44 368.45 M 1566.33 386.29 C 1566.36 402.80 1566.38 419.31 1566.32 435.83 C 1572.48 435.98 1578.68 436.38 1584.84 435.74 C 1596.80 434.00 1605.36 421.73 1604.48 409.98 C 1604.11 401.27 1599.12 392.68 1591.23 388.73 C 1583.59 384.56 1574.61 386.78 1566.33 386.29 Z" />
<path fill="#03a1cb" opacity="1.00" d=" M 1637.47 377.92 C 1637.02 372.64 1641.56 367.46 1646.92 367.51 C 1652.94 367.24 1658.97 367.49 1665.00 367.41 C 1672.03 367.16 1679.42 367.64 1685.55 371.48 C 1699.02 378.46 1705.68 396.51 1699.17 410.37 C 1695.90 417.41 1688.89 421.52 1682.07 424.51 C 1687.57 428.82 1693.01 433.21 1698.41 437.65 C 1703.18 441.04 1703.10 448.99 1698.63 452.59 C 1695.93 455.58 1691.17 455.36 1687.70 454.20 C 1677.68 446.49 1668.63 437.57 1658.69 429.75 C 1656.03 435.74 1659.16 442.86 1656.95 449.05 C 1654.43 455.61 1644.62 456.88 1640.03 451.88 C 1638.39 450.00 1637.31 447.58 1637.48 445.06 C 1637.48 422.68 1637.48 400.30 1637.47 377.92 M 1657.62 386.30 C 1657.77 394.67 1657.72 403.05 1657.63 411.42 C 1664.48 410.87 1672.47 413.07 1678.20 408.16 C 1684.12 403.48 1683.84 393.64 1677.90 389.10 C 1672.21 384.32 1664.34 386.91 1657.62 386.30 Z" />
<path fill="#03a1cb" opacity="1.00" d=" M 1813.40 377.93 C 1813.11 373.01 1816.95 367.95 1821.99 367.59 C 1827.98 367.17 1833.99 367.51 1840.00 367.41 C 1846.03 367.50 1852.38 366.96 1858.02 369.58 C 1867.72 373.36 1875.21 382.28 1877.32 392.47 C 1878.17 399.00 1878.01 405.99 1874.94 411.97 C 1870.38 421.73 1860.60 429.00 1849.81 429.94 C 1844.39 430.41 1838.94 430.13 1833.52 430.24 C 1833.63 436.02 1833.92 441.83 1833.40 447.60 C 1831.82 455.67 1819.51 457.58 1815.20 450.85 C 1813.03 448.01 1813.48 444.32 1813.41 440.99 C 1813.38 419.97 1813.40 398.95 1813.40 377.93 M 1833.53 386.30 C 1833.74 394.68 1833.67 403.06 1833.58 411.44 C 1839.53 410.92 1846.09 412.59 1851.53 409.47 C 1858.63 405.47 1859.67 393.92 1852.93 389.08 C 1847.48 384.50 1839.98 386.84 1833.53 386.30 Z" />
</g>
<g id="#1fb790ff">
<path fill="#1fb790" opacity="1.00" d=" M 825.09 167.16 C 832.07 163.30 841.70 163.70 847.69 169.26 C 851.03 172.61 852.63 177.19 854.55 181.42 C 871.65 219.98 888.85 258.50 905.94 297.06 C 909.79 305.29 906.38 315.96 898.33 320.25 C 891.54 323.95 882.25 322.78 876.90 317.10 C 874.79 315.00 873.54 312.25 872.43 309.54 C 870.41 304.47 868.18 299.48 866.32 294.34 C 845.05 294.25 823.78 294.33 802.50 294.29 C 799.94 300.49 797.49 306.75 794.64 312.83 C 792.50 317.59 787.83 320.82 782.83 321.97 C 774.75 323.78 765.58 319.43 762.41 311.66 C 760.53 306.95 760.83 301.55 762.88 296.95 C 780.33 258.46 797.80 219.97 815.20 181.45 C 817.42 176.10 819.87 170.25 825.09 167.16 M 815.86 263.36 C 828.37 263.35 840.89 263.37 853.40 263.36 C 847.54 248.19 841.26 233.17 834.91 218.20 C 828.31 233.15 822.24 248.32 815.86 263.36 Z" />
<path fill="#1fb790" opacity="1.00" d=" M 1304.29 165.16 C 1310.08 163.88 1316.71 164.77 1321.37 168.65 C 1326.00 172.85 1327.68 179.08 1330.37 184.52 C 1346.83 221.78 1363.51 258.94 1379.95 296.21 C 1383.58 303.81 1381.94 313.96 1374.80 318.92 C 1366.51 325.33 1352.59 322.49 1348.28 312.73 C 1345.54 306.70 1343.09 300.53 1340.73 294.35 C 1319.42 294.30 1298.12 294.21 1276.81 294.39 C 1274.58 300.23 1272.09 305.98 1269.64 311.73 C 1267.41 316.98 1262.62 321.05 1256.93 321.94 C 1247.34 324.31 1236.63 316.96 1235.68 307.08 C 1234.84 301.83 1237.11 296.88 1239.40 292.31 C 1256.85 253.78 1274.36 215.28 1291.78 176.73 C 1293.94 171.22 1298.47 166.65 1304.29 165.16 M 1309.26 218.20 C 1303.00 233.25 1296.38 248.16 1290.46 263.34 C 1302.99 263.38 1315.52 263.36 1328.06 263.33 C 1321.64 248.35 1315.86 233.10 1309.26 218.20 Z" />
<path fill="#1fb790" opacity="1.00" d=" M 1693.54 169.55 C 1701.70 161.55 1717.88 163.33 1722.70 174.22 C 1732.11 194.34 1740.62 214.87 1749.90 235.06 C 1758.80 255.13 1767.73 275.20 1776.65 295.27 C 1778.40 299.12 1779.40 303.43 1778.70 307.67 C 1777.61 315.71 1770.09 322.16 1762.03 322.37 C 1754.83 322.87 1747.69 318.44 1744.86 311.83 C 1742.50 306.07 1739.99 300.35 1738.04 294.44 C 1716.73 294.12 1695.42 294.38 1674.11 294.30 C 1671.60 300.13 1669.13 305.98 1666.64 311.82 C 1663.63 319.24 1654.98 323.75 1647.17 322.04 C 1638.47 320.67 1631.33 311.87 1632.69 302.98 C 1633.61 296.79 1637.03 291.40 1639.48 285.75 C 1654.62 252.14 1669.88 218.60 1685.12 185.04 C 1687.56 179.71 1689.43 173.91 1693.54 169.55 M 1687.46 263.35 C 1699.99 263.37 1712.53 263.34 1725.07 263.38 C 1718.96 248.17 1712.59 233.07 1706.44 217.88 C 1700.06 233.01 1693.45 248.06 1687.46 263.35 Z" />
<path fill="#1fb790" opacity="1.00" d=" M 617.36 168.46 C 623.83 166.31 631.62 167.51 636.54 172.44 C 640.63 176.02 641.85 181.52 643.67 186.39 C 650.98 206.35 658.09 226.38 665.64 246.25 C 672.73 226.53 679.97 206.86 687.13 187.16 C 688.47 183.53 689.67 179.83 691.43 176.37 C 694.74 170.65 701.41 167.03 708.03 167.44 C 715.07 167.42 721.62 172.57 723.67 179.24 C 724.34 181.32 724.84 183.45 725.41 185.56 C 734.79 223.40 744.35 261.19 753.74 299.04 C 756.59 308.31 750.75 319.79 741.03 321.90 C 731.86 324.32 721.48 318.23 719.05 309.10 C 713.86 288.59 708.87 268.02 703.66 247.51 C 695.70 268.46 688.30 289.62 680.60 310.66 C 679.25 314.50 676.76 317.99 673.39 320.31 C 667.31 324.07 658.37 322.78 654.01 316.96 C 650.74 312.99 649.50 307.88 647.79 303.15 C 641.06 284.61 634.38 266.06 627.56 247.56 C 622.01 267.68 617.34 288.03 612.05 308.22 C 610.00 317.28 600.35 324.19 591.08 322.00 C 583.63 320.88 577.86 314.24 576.65 306.99 C 575.95 302.65 577.58 298.45 578.50 294.28 C 587.85 256.95 597.12 219.59 606.54 182.27 C 607.78 176.35 611.63 170.78 617.36 168.46 Z" />
<path fill="#1fb790" opacity="1.00" d=" M 926.28 171.28 C 930.81 167.30 937.36 166.76 943.02 168.14 C 948.84 170.05 952.60 175.17 956.10 179.87 C 976.37 205.55 996.17 231.60 1016.57 257.16 C 1016.88 233.09 1016.60 209.01 1016.71 184.93 C 1016.66 178.69 1020.45 172.89 1025.69 169.72 C 1029.79 167.28 1034.83 167.04 1039.44 167.84 C 1045.21 169.45 1050.41 173.95 1052.05 179.84 C 1053.05 183.13 1052.81 186.61 1052.85 190.00 C 1052.78 228.03 1052.86 266.06 1052.81 304.08 C 1053.26 313.03 1045.92 321.46 1037.02 322.26 C 1031.07 323.05 1024.88 320.57 1021.13 315.91 C 1003.61 293.70 986.39 271.25 969.01 248.93 C 964.52 243.43 960.61 237.45 955.73 232.27 C 955.44 256.50 955.77 280.75 955.60 304.99 C 955.65 314.23 947.24 322.53 938.00 322.38 C 928.02 323.17 919.08 313.88 919.56 304.03 C 919.51 264.67 919.53 225.31 919.56 185.95 C 919.41 180.34 921.78 174.72 926.28 171.28 Z" />
<path fill="#1fb790" opacity="1.00" d=" M 1086.52 167.73 C 1091.75 166.85 1097.54 167.72 1101.51 171.49 C 1106.27 175.07 1108.20 181.17 1108.14 186.94 C 1108.15 223.62 1108.12 260.31 1108.15 297.00 C 1108.09 301.69 1108.53 306.56 1106.83 311.04 C 1104.13 318.13 1096.57 323.10 1088.94 322.36 C 1079.97 322.05 1071.94 314.17 1072.00 305.09 C 1071.93 265.04 1071.98 224.98 1071.98 184.93 C 1071.88 176.69 1078.42 169.06 1086.52 167.73 Z" />
<path fill="#1fb790" opacity="1.00" d=" M 1128.44 172.45 C 1135.14 165.47 1147.63 165.79 1154.11 172.90 C 1157.99 176.45 1159.21 181.91 1159.19 186.98 C 1159.24 220.94 1159.05 254.92 1159.29 288.88 C 1173.19 289.05 1187.09 288.95 1200.99 288.94 C 1204.67 288.98 1208.58 288.67 1212.01 290.31 C 1216.32 292.29 1220.13 295.86 1221.48 300.52 C 1223.69 307.25 1221.18 315.21 1215.31 319.26 C 1212.31 321.33 1208.69 322.46 1205.06 322.40 C 1185.71 322.44 1166.36 322.39 1147.01 322.42 C 1142.43 322.33 1137.56 322.91 1133.36 320.70 C 1127.00 317.81 1122.82 311.07 1123.01 304.10 C 1122.92 265.73 1123.04 227.35 1122.95 188.98 C 1122.73 183.08 1123.78 176.54 1128.44 172.45 Z" />
<path fill="#1fb790" opacity="1.00" d=" M 1453.00 169.01 C 1462.35 164.45 1475.34 169.64 1477.87 180.05 C 1484.94 205.36 1492.32 230.60 1499.05 256.00 C 1507.72 231.37 1516.55 206.79 1525.23 182.15 C 1527.09 176.19 1530.89 170.27 1537.13 168.28 C 1543.68 166.47 1551.59 167.41 1556.47 172.53 C 1559.72 175.75 1560.94 180.28 1562.50 184.44 C 1567.74 199.50 1573.03 214.54 1578.42 229.54 C 1581.29 238.35 1585.19 246.84 1587.20 255.91 C 1590.72 246.40 1592.99 236.51 1595.79 226.79 C 1600.47 210.97 1604.60 194.99 1609.31 179.18 C 1612.21 169.15 1624.91 164.68 1633.98 169.00 C 1639.18 171.80 1643.09 177.06 1643.85 182.98 C 1644.76 188.19 1642.60 193.21 1641.06 198.08 C 1630.32 232.29 1619.55 266.48 1608.79 300.68 C 1606.72 306.89 1605.54 313.99 1600.42 318.56 C 1592.14 325.56 1577.78 322.66 1573.60 312.41 C 1563.01 284.45 1553.88 255.94 1543.17 228.03 C 1540.80 236.40 1537.43 244.45 1534.67 252.70 C 1528.03 271.42 1521.30 290.09 1514.80 308.85 C 1513.14 313.85 1509.91 318.62 1505.02 320.89 C 1498.61 323.60 1490.35 322.82 1485.46 317.54 C 1481.89 314.11 1480.62 309.19 1479.31 304.59 C 1468.76 270.86 1458.00 237.20 1447.48 203.47 C 1445.74 197.70 1443.17 192.08 1442.77 186.01 C 1442.79 179.08 1446.66 172.07 1453.00 169.01 Z" />
<path fill="#1fb790" opacity="1.00" d=" M 1765.30 171.30 C 1769.75 167.04 1776.27 167.30 1781.99 167.38 C 1812.65 167.49 1843.32 167.26 1873.98 167.47 C 1881.89 167.01 1889.02 173.61 1890.41 181.17 C 1892.29 190.83 1883.95 201.17 1873.98 200.67 C 1863.69 200.69 1853.40 200.76 1843.11 200.62 C 1843.14 234.09 1843.10 267.56 1843.14 301.03 C 1843.12 305.09 1842.91 309.34 1840.94 312.98 C 1836.72 320.94 1826.07 324.66 1817.84 320.99 C 1811.19 318.25 1806.68 311.27 1806.91 304.08 C 1806.82 269.60 1806.92 235.11 1806.85 200.62 C 1796.55 200.73 1786.24 200.72 1775.94 200.66 C 1771.80 200.70 1767.62 199.35 1764.68 196.37 C 1757.43 190.06 1757.71 177.24 1765.30 171.30 Z" />
<path fill="#1fb790" opacity="1.00" d=" M 1917.72 168.81 C 1921.20 167.08 1925.21 167.49 1928.99 167.39 C 1951.01 167.45 1973.03 167.32 1995.06 167.44 C 2004.64 166.90 2012.93 176.62 2011.50 186.00 C 2010.82 194.11 2003.28 201.10 1995.08 200.69 C 1977.80 200.59 1960.52 200.90 1943.26 200.52 C 1943.16 209.50 1943.13 218.48 1943.26 227.46 C 1956.84 227.27 1970.43 227.30 1984.02 227.44 C 1992.01 227.49 1998.84 235.09 1998.37 243.00 C 1998.45 251.07 1991.28 258.60 1983.07 258.30 C 1969.79 258.38 1956.51 258.29 1943.24 258.33 C 1943.16 268.51 1943.10 278.70 1943.29 288.88 C 1957.52 289.06 1971.76 288.92 1986.00 288.96 C 1990.53 289.01 1995.11 288.74 1999.61 289.47 C 2006.53 291.72 2012.03 298.53 2011.58 305.99 C 2011.74 314.75 2003.87 322.72 1995.06 322.35 C 1972.37 322.50 1949.67 322.37 1926.98 322.42 C 1916.53 323.63 1906.48 314.61 1906.99 304.02 C 1906.98 264.65 1906.95 225.27 1907.01 185.90 C 1906.79 178.67 1911.08 171.72 1917.72 168.81 Z" />
<path fill="#1fb790" opacity="1.00" d=" M 2029.53 184.95 C 2029.25 175.66 2037.81 167.26 2047.02 167.45 C 2060.70 167.32 2074.39 167.41 2088.07 167.41 C 2106.42 167.33 2124.28 177.37 2134.14 192.77 C 2143.67 206.90 2145.89 225.79 2139.52 241.64 C 2134.10 254.40 2121.98 263.15 2109.23 267.69 C 2109.32 268.08 2109.49 268.86 2109.58 269.24 C 2118.17 275.61 2126.24 282.66 2134.74 289.16 C 2138.10 291.89 2141.78 294.81 2143.01 299.18 C 2146.50 308.62 2139.91 320.39 2129.94 322.11 C 2124.61 322.92 2118.77 321.96 2114.67 318.27 C 2104.64 309.64 2094.60 301.03 2084.53 292.44 C 2078.22 287.39 2072.72 281.30 2065.73 277.14 C 2065.17 286.75 2065.77 296.39 2065.45 306.00 C 2065.21 310.49 2063.03 314.71 2059.68 317.66 C 2053.03 324.18 2041.23 323.86 2034.82 317.18 C 2031.31 313.80 2029.40 308.90 2029.47 304.06 C 2029.56 264.35 2029.45 224.65 2029.53 184.95 M 2065.47 200.64 C 2065.56 215.39 2065.59 230.15 2065.45 244.90 C 2073.56 244.69 2081.71 245.34 2089.81 244.61 C 2100.02 243.56 2108.91 234.44 2108.95 224.04 C 2109.95 212.65 2100.37 201.72 2089.04 200.91 C 2081.19 200.39 2073.32 200.90 2065.47 200.64 Z" />
</g>
</svg>
